<svg width="100" height="100" viewBox="0 0 100 100" fill="none" xmlns="http://www.w3.org/2000/svg">
<path d="M13.7275 28.9102L85.7551 70.4953" stroke="white" stroke-width="1.27954" stroke-linecap="square"/>
<path d="M85.1144 28.9102L13.0868 70.4953" stroke="white" stroke-width="1.27954" stroke-linecap="square"/>
<path d="M48.0402 8.03174V91.2021" stroke="white" stroke-width="1.27954" stroke-linecap="square"/>
<path d="M54.8383 11.0659L48.6441 15.6015" stroke="white" stroke-width="1.27954" stroke-linecap="square"/>
<path d="M82.5837 75.5432L81.8563 67.9004" stroke="white" stroke-width="1.27954" stroke-linecap="square"/>
<path d="M17.4595 23.3081L18.3484 30.9337" stroke="white" stroke-width="1.27954" stroke-linecap="square"/>
<path d="M64.3164 15.1094L48.7754 23.8413" stroke="white" stroke-width="1.27954" stroke-linecap="square"/>
<path d="M72.584 77.3999L74.71 63.7969" stroke="white" stroke-width="1.27954" stroke-linecap="square"/>
<path d="M25.5781 18.9683V34.8854" stroke="white" stroke-width="1.27954" stroke-linecap="square"/>
<path d="M56.5977 28.3394L48.329 32.198" stroke="white" stroke-width="1.27954" stroke-linecap="square"/>
<path d="M68.8415 67.5109L68.1141 59.8682" stroke="white" stroke-width="1.27954" stroke-linecap="square"/>
<path d="M31.3677 31.0479L32.2566 38.6736" stroke="white" stroke-width="1.27954" stroke-linecap="square"/>
<path d="M87.4688 34.954L80.8538 31.6465" stroke="white" stroke-width="1.27954" stroke-linecap="square"/>
<path d="M42.4214 89.8461L48.6157 85.3105" stroke="white" stroke-width="1.27954" stroke-linecap="square"/>
<path d="M12.3988 63.4448L19.5807 66.1579" stroke="white" stroke-width="1.27954" stroke-linecap="square"/>
<path d="M89.1211 42.6712L73.2943 35.146" stroke="white" stroke-width="1.27954" stroke-linecap="square"/>
<path d="M33.4453 84.566L47.7776 77.3999" stroke="white" stroke-width="1.27954" stroke-linecap="square"/>
<path d="M10.8457 52.5938L25.7292 62.5161" stroke="white" stroke-width="1.27954" stroke-linecap="square"/>
<path d="M72.584 43.7737L65.9691 39.915" stroke="white" stroke-width="1.27954" stroke-linecap="square"/>
<path d="M42.4214 73.2119L48.6157 68.6763" stroke="white" stroke-width="1.27954" stroke-linecap="square"/>
<path d="M26.3343 54.3628L33.5162 57.0759" stroke="white" stroke-width="1.27954" stroke-linecap="square"/>
<path d="M47.7793 15.6606L42.3934 10.8491" stroke="white" stroke-width="1.27954" stroke-linecap="square"/>
<path d="M81.9803 67.7378L89.1377 64.9609" stroke="white" stroke-width="1.27954" stroke-linecap="square"/>
<path d="M18.2268 31.0986L11.1297 34.0263" stroke="white" stroke-width="1.27954" stroke-linecap="square"/>
<path d="M47.7789 23.9292L32.3441 14.5581" stroke="white" stroke-width="1.27954" stroke-linecap="square"/>
<path d="M74.8345 63.6349L87.4677 54.7993" stroke="white" stroke-width="1.27954" stroke-linecap="square"/>
<path d="M25.4578 35.0503L11.3961 43.7741" stroke="white" stroke-width="1.27954" stroke-linecap="square"/>
<path d="M47.7781 32.1981L39.5095 28.3394" stroke="white" stroke-width="1.27954" stroke-linecap="square"/>
<path d="M68.2381 59.7062L75.3955 56.9292" stroke="white" stroke-width="1.27954" stroke-linecap="square"/>
<path d="M32.135 38.8384L25.0379 41.7661" stroke="white" stroke-width="1.27954" stroke-linecap="square"/>
<path d="M80.3028 31.6465L80.6094 23.3105" stroke="white" stroke-width="1.27954" stroke-linecap="square"/>
<path d="M48.818 85.3345L54.8662 90.063" stroke="white" stroke-width="1.27954" stroke-linecap="square"/>
<path d="M19.6704 66.3413L19.0111 73.9902" stroke="white" stroke-width="1.27954" stroke-linecap="square"/>
<path d="M73.2091 34.9609L73.6873 18.417" stroke="white" stroke-width="1.27954" stroke-linecap="square"/>
<path d="M48.819 77.6572L62.6629 86.7711" stroke="white" stroke-width="1.27954" stroke-linecap="square"/>
<path d="M26.2806 63.0674L28.4856 76.8485" stroke="white" stroke-width="1.27954" stroke-linecap="square"/>
<path d="M65.9697 39.3644L65.4185 31.647" stroke="white" stroke-width="1.27954" stroke-linecap="square"/>
<path d="M48.818 68.7002L54.8662 73.4288" stroke="white" stroke-width="1.27954" stroke-linecap="square"/>
<path d="M33.6079 57.2588L32.9486 64.9077" stroke="white" stroke-width="1.27954" stroke-linecap="square"/>
</svg>
